# Procedural low-poly treasure chest
# Generated by generate_mesh.py; dimensions are in meters.
o LowPolyTreasureChest
v -0.650000 -0.390000 0.080000
v 0.650000 -0.390000 0.080000
v 0.650000 0.390000 0.080000
v -0.650000 0.390000 0.080000
v -0.650000 -0.390000 0.600000
v 0.650000 -0.390000 0.600000
v 0.650000 0.390000 0.600000
v -0.650000 0.390000 0.600000
v -0.650000 -0.429000 0.130000
v 0.650000 -0.429000 0.130000
v 0.650000 -0.393000 0.130000
v -0.650000 -0.393000 0.130000
v -0.650000 -0.429000 0.212000
v 0.650000 -0.429000 0.212000
v 0.650000 -0.393000 0.212000
v -0.650000 -0.393000 0.212000
v -0.650000 0.393000 0.130000
v 0.650000 0.393000 0.130000
v 0.650000 0.429000 0.130000
v -0.650000 0.429000 0.130000
v -0.650000 0.393000 0.212000
v 0.650000 0.393000 0.212000
v 0.650000 0.429000 0.212000
v -0.650000 0.429000 0.212000
v -0.680000 -0.390000 0.130000
v -0.648000 -0.390000 0.130000
v -0.648000 0.390000 0.130000
v -0.680000 0.390000 0.130000
v -0.680000 -0.390000 0.212000
v -0.648000 -0.390000 0.212000
v -0.648000 0.390000 0.212000
v -0.680000 0.390000 0.212000
v 0.648000 -0.390000 0.130000
v 0.680000 -0.390000 0.130000
v 0.680000 0.390000 0.130000
v 0.648000 0.390000 0.130000
v 0.648000 -0.390000 0.212000
v 0.680000 -0.390000 0.212000
v 0.680000 0.390000 0.212000
v 0.648000 0.390000 0.212000
v -0.650000 -0.429000 0.224000
v 0.650000 -0.429000 0.224000
v 0.650000 -0.393000 0.224000
v -0.650000 -0.393000 0.224000
v -0.650000 -0.429000 0.306000
v 0.650000 -0.429000 0.306000
v 0.650000 -0.393000 0.306000
v -0.650000 -0.393000 0.306000
v -0.650000 0.393000 0.224000
v 0.650000 0.393000 0.224000
v 0.650000 0.429000 0.224000
v -0.650000 0.429000 0.224000
v -0.650000 0.393000 0.306000
v 0.650000 0.393000 0.306000
v 0.650000 0.429000 0.306000
v -0.650000 0.429000 0.306000
v -0.680000 -0.390000 0.224000
v -0.648000 -0.390000 0.224000
v -0.648000 0.390000 0.224000
v -0.680000 0.390000 0.224000
v -0.680000 -0.390000 0.306000
v -0.648000 -0.390000 0.306000
v -0.648000 0.390000 0.306000
v -0.680000 0.390000 0.306000
v 0.648000 -0.390000 0.224000
v 0.680000 -0.390000 0.224000
v 0.680000 0.390000 0.224000
v 0.648000 0.390000 0.224000
v 0.648000 -0.390000 0.306000
v 0.680000 -0.390000 0.306000
v 0.680000 0.390000 0.306000
v 0.648000 0.390000 0.306000
v -0.650000 -0.429000 0.318000
v 0.650000 -0.429000 0.318000
v 0.650000 -0.393000 0.318000
v -0.650000 -0.393000 0.318000
v -0.650000 -0.429000 0.400000
v 0.650000 -0.429000 0.400000
v 0.650000 -0.393000 0.400000
v -0.650000 -0.393000 0.400000
v -0.650000 0.393000 0.318000
v 0.650000 0.393000 0.318000
v 0.650000 0.429000 0.318000
v -0.650000 0.429000 0.318000
v -0.650000 0.393000 0.400000
v 0.650000 0.393000 0.400000
v 0.650000 0.429000 0.400000
v -0.650000 0.429000 0.400000
v -0.680000 -0.390000 0.318000
v -0.648000 -0.390000 0.318000
v -0.648000 0.390000 0.318000
v -0.680000 0.390000 0.318000
v -0.680000 -0.390000 0.400000
v -0.648000 -0.390000 0.400000
v -0.648000 0.390000 0.400000
v -0.680000 0.390000 0.400000
v 0.648000 -0.390000 0.318000
v 0.680000 -0.390000 0.318000
v 0.680000 0.390000 0.318000
v 0.648000 0.390000 0.318000
v 0.648000 -0.390000 0.400000
v 0.680000 -0.390000 0.400000
v 0.680000 0.390000 0.400000
v 0.648000 0.390000 0.400000
v -0.650000 -0.429000 0.412000
v 0.650000 -0.429000 0.412000
v 0.650000 -0.393000 0.412000
v -0.650000 -0.393000 0.412000
v -0.650000 -0.429000 0.494000
v 0.650000 -0.429000 0.494000
v 0.650000 -0.393000 0.494000
v -0.650000 -0.393000 0.494000
v -0.650000 0.393000 0.412000
v 0.650000 0.393000 0.412000
v 0.650000 0.429000 0.412000
v -0.650000 0.429000 0.412000
v -0.650000 0.393000 0.494000
v 0.650000 0.393000 0.494000
v 0.650000 0.429000 0.494000
v -0.650000 0.429000 0.494000
v -0.680000 -0.390000 0.412000
v -0.648000 -0.390000 0.412000
v -0.648000 0.390000 0.412000
v -0.680000 0.390000 0.412000
v -0.680000 -0.390000 0.494000
v -0.648000 -0.390000 0.494000
v -0.648000 0.390000 0.494000
v -0.680000 0.390000 0.494000
v 0.648000 -0.390000 0.412000
v 0.680000 -0.390000 0.412000
v 0.680000 0.390000 0.412000
v 0.648000 0.390000 0.412000
v 0.648000 -0.390000 0.494000
v 0.680000 -0.390000 0.494000
v 0.680000 0.390000 0.494000
v 0.648000 0.390000 0.494000
v -0.650000 -0.429000 0.506000
v 0.650000 -0.429000 0.506000
v 0.650000 -0.393000 0.506000
v -0.650000 -0.393000 0.506000
v -0.650000 -0.429000 0.588000
v 0.650000 -0.429000 0.588000
v 0.650000 -0.393000 0.588000
v -0.650000 -0.393000 0.588000
v -0.650000 0.393000 0.506000
v 0.650000 0.393000 0.506000
v 0.650000 0.429000 0.506000
v -0.650000 0.429000 0.506000
v -0.650000 0.393000 0.588000
v 0.650000 0.393000 0.588000
v 0.650000 0.429000 0.588000
v -0.650000 0.429000 0.588000
v -0.680000 -0.390000 0.506000
v -0.648000 -0.390000 0.506000
v -0.648000 0.390000 0.506000
v -0.680000 0.390000 0.506000
v -0.680000 -0.390000 0.588000
v -0.648000 -0.390000 0.588000
v -0.648000 0.390000 0.588000
v -0.680000 0.390000 0.588000
v 0.648000 -0.390000 0.506000
v 0.680000 -0.390000 0.506000
v 0.680000 0.390000 0.506000
v 0.648000 0.390000 0.506000
v 0.648000 -0.390000 0.588000
v 0.680000 -0.390000 0.588000
v 0.680000 0.390000 0.588000
v 0.648000 0.390000 0.588000
v -0.660000 -0.440000 0.075000
v 0.660000 -0.440000 0.075000
v 0.660000 -0.388000 0.075000
v -0.660000 -0.388000 0.075000
v -0.660000 -0.440000 0.165000
v 0.660000 -0.440000 0.165000
v 0.660000 -0.388000 0.165000
v -0.660000 -0.388000 0.165000
v -0.660000 0.388000 0.075000
v 0.660000 0.388000 0.075000
v 0.660000 0.440000 0.075000
v -0.660000 0.440000 0.075000
v -0.660000 0.388000 0.165000
v 0.660000 0.388000 0.165000
v 0.660000 0.440000 0.165000
v -0.660000 0.440000 0.165000
v -0.690000 -0.410000 0.075000
v -0.638000 -0.410000 0.075000
v -0.638000 0.410000 0.075000
v -0.690000 0.410000 0.075000
v -0.690000 -0.410000 0.165000
v -0.638000 -0.410000 0.165000
v -0.638000 0.410000 0.165000
v -0.690000 0.410000 0.165000
v 0.638000 -0.410000 0.075000
v 0.690000 -0.410000 0.075000
v 0.690000 0.410000 0.075000
v 0.638000 0.410000 0.075000
v 0.638000 -0.410000 0.165000
v 0.690000 -0.410000 0.165000
v 0.690000 0.410000 0.165000
v 0.638000 0.410000 0.165000
v -0.635000 -0.360000 0.000000
v -0.465000 -0.360000 0.000000
v -0.465000 -0.220000 0.000000
v -0.635000 -0.220000 0.000000
v -0.635000 -0.360000 0.104000
v -0.465000 -0.360000 0.104000
v -0.465000 -0.220000 0.104000
v -0.635000 -0.220000 0.104000
v -0.635000 0.220000 0.000000
v -0.465000 0.220000 0.000000
v -0.465000 0.360000 0.000000
v -0.635000 0.360000 0.000000
v -0.635000 0.220000 0.104000
v -0.465000 0.220000 0.104000
v -0.465000 0.360000 0.104000
v -0.635000 0.360000 0.104000
v 0.465000 -0.360000 0.000000
v 0.635000 -0.360000 0.000000
v 0.635000 -0.220000 0.000000
v 0.465000 -0.220000 0.000000
v 0.465000 -0.360000 0.104000
v 0.635000 -0.360000 0.104000
v 0.635000 -0.220000 0.104000
v 0.465000 -0.220000 0.104000
v 0.465000 0.220000 0.000000
v 0.635000 0.220000 0.000000
v 0.635000 0.360000 0.000000
v 0.465000 0.360000 0.000000
v 0.465000 0.220000 0.104000
v 0.635000 0.220000 0.104000
v 0.635000 0.360000 0.104000
v 0.465000 0.360000 0.104000
v -0.670000 0.410000 0.590000
v -0.670000 0.396030 0.696116
v -0.670000 0.355070 0.795000
v -0.670000 0.289914 0.879914
v -0.670000 0.205000 0.945070
v -0.670000 0.106116 0.986030
v -0.670000 0.000000 1.000000
v -0.670000 -0.106116 0.986030
v -0.670000 -0.205000 0.945070
v -0.670000 -0.289914 0.879914
v -0.670000 -0.355070 0.795000
v -0.670000 -0.396030 0.696116
v -0.670000 -0.410000 0.590000
v -0.483714 0.410000 0.590000
v -0.483714 0.396030 0.696116
v -0.483714 0.355070 0.795000
v -0.483714 0.289914 0.879914
v -0.483714 0.205000 0.945070
v -0.483714 0.106116 0.986030
v -0.483714 0.000000 1.000000
v -0.483714 -0.106116 0.986030
v -0.483714 -0.205000 0.945070
v -0.483714 -0.289914 0.879914
v -0.483714 -0.355070 0.795000
v -0.483714 -0.396030 0.696116
v -0.483714 -0.410000 0.590000
v -0.670000 0.000000 0.829558
v -0.483714 0.000000 0.829558
v -0.477714 0.410000 0.590000
v -0.477714 0.396030 0.696116
v -0.477714 0.355070 0.795000
v -0.477714 0.289914 0.879914
v -0.477714 0.205000 0.945070
v -0.477714 0.106116 0.986030
v -0.477714 0.000000 1.000000
v -0.477714 -0.106116 0.986030
v -0.477714 -0.205000 0.945070
v -0.477714 -0.289914 0.879914
v -0.477714 -0.355070 0.795000
v -0.477714 -0.396030 0.696116
v -0.477714 -0.410000 0.590000
v -0.291429 0.410000 0.590000
v -0.291429 0.396030 0.696116
v -0.291429 0.355070 0.795000
v -0.291429 0.289914 0.879914
v -0.291429 0.205000 0.945070
v -0.291429 0.106116 0.986030
v -0.291429 0.000000 1.000000
v -0.291429 -0.106116 0.986030
v -0.291429 -0.205000 0.945070
v -0.291429 -0.289914 0.879914
v -0.291429 -0.355070 0.795000
v -0.291429 -0.396030 0.696116
v -0.291429 -0.410000 0.590000
v -0.477714 0.000000 0.829558
v -0.291429 0.000000 0.829558
v -0.285429 0.410000 0.590000
v -0.285429 0.396030 0.696116
v -0.285429 0.355070 0.795000
v -0.285429 0.289914 0.879914
v -0.285429 0.205000 0.945070
v -0.285429 0.106116 0.986030
v -0.285429 0.000000 1.000000
v -0.285429 -0.106116 0.986030
v -0.285429 -0.205000 0.945070
v -0.285429 -0.289914 0.879914
v -0.285429 -0.355070 0.795000
v -0.285429 -0.396030 0.696116
v -0.285429 -0.410000 0.590000
v -0.099143 0.410000 0.590000
v -0.099143 0.396030 0.696116
v -0.099143 0.355070 0.795000
v -0.099143 0.289914 0.879914
v -0.099143 0.205000 0.945070
v -0.099143 0.106116 0.986030
v -0.099143 0.000000 1.000000
v -0.099143 -0.106116 0.986030
v -0.099143 -0.205000 0.945070
v -0.099143 -0.289914 0.879914
v -0.099143 -0.355070 0.795000
v -0.099143 -0.396030 0.696116
v -0.099143 -0.410000 0.590000
v -0.285429 0.000000 0.829558
v -0.099143 0.000000 0.829558
v -0.093143 0.410000 0.590000
v -0.093143 0.396030 0.696116
v -0.093143 0.355070 0.795000
v -0.093143 0.289914 0.879914
v -0.093143 0.205000 0.945070
v -0.093143 0.106116 0.986030
v -0.093143 0.000000 1.000000
v -0.093143 -0.106116 0.986030
v -0.093143 -0.205000 0.945070
v -0.093143 -0.289914 0.879914
v -0.093143 -0.355070 0.795000
v -0.093143 -0.396030 0.696116
v -0.093143 -0.410000 0.590000
v 0.093143 0.410000 0.590000
v 0.093143 0.396030 0.696116
v 0.093143 0.355070 0.795000
v 0.093143 0.289914 0.879914
v 0.093143 0.205000 0.945070
v 0.093143 0.106116 0.986030
v 0.093143 0.000000 1.000000
v 0.093143 -0.106116 0.986030
v 0.093143 -0.205000 0.945070
v 0.093143 -0.289914 0.879914
v 0.093143 -0.355070 0.795000
v 0.093143 -0.396030 0.696116
v 0.093143 -0.410000 0.590000
v -0.093143 0.000000 0.829558
v 0.093143 0.000000 0.829558
v 0.099143 0.410000 0.590000
v 0.099143 0.396030 0.696116
v 0.099143 0.355070 0.795000
v 0.099143 0.289914 0.879914
v 0.099143 0.205000 0.945070
v 0.099143 0.106116 0.986030
v 0.099143 0.000000 1.000000
v 0.099143 -0.106116 0.986030
v 0.099143 -0.205000 0.945070
v 0.099143 -0.289914 0.879914
v 0.099143 -0.355070 0.795000
v 0.099143 -0.396030 0.696116
v 0.099143 -0.410000 0.590000
v 0.285429 0.410000 0.590000
v 0.285429 0.396030 0.696116
v 0.285429 0.355070 0.795000
v 0.285429 0.289914 0.879914
v 0.285429 0.205000 0.945070
v 0.285429 0.106116 0.986030
v 0.285429 0.000000 1.000000
v 0.285429 -0.106116 0.986030
v 0.285429 -0.205000 0.945070
v 0.285429 -0.289914 0.879914
v 0.285429 -0.355070 0.795000
v 0.285429 -0.396030 0.696116
v 0.285429 -0.410000 0.590000
v 0.099143 0.000000 0.829558
v 0.285429 0.000000 0.829558
v 0.291429 0.410000 0.590000
v 0.291429 0.396030 0.696116
v 0.291429 0.355070 0.795000
v 0.291429 0.289914 0.879914
v 0.291429 0.205000 0.945070
v 0.291429 0.106116 0.986030
v 0.291429 0.000000 1.000000
v 0.291429 -0.106116 0.986030
v 0.291429 -0.205000 0.945070
v 0.291429 -0.289914 0.879914
v 0.291429 -0.355070 0.795000
v 0.291429 -0.396030 0.696116
v 0.291429 -0.410000 0.590000
v 0.477714 0.410000 0.590000
v 0.477714 0.396030 0.696116
v 0.477714 0.355070 0.795000
v 0.477714 0.289914 0.879914
v 0.477714 0.205000 0.945070
v 0.477714 0.106116 0.986030
v 0.477714 0.000000 1.000000
v 0.477714 -0.106116 0.986030
v 0.477714 -0.205000 0.945070
v 0.477714 -0.289914 0.879914
v 0.477714 -0.355070 0.795000
v 0.477714 -0.396030 0.696116
v 0.477714 -0.410000 0.590000
v 0.291429 0.000000 0.829558
v 0.477714 0.000000 0.829558
v 0.483714 0.410000 0.590000
v 0.483714 0.396030 0.696116
v 0.483714 0.355070 0.795000
v 0.483714 0.289914 0.879914
v 0.483714 0.205000 0.945070
v 0.483714 0.106116 0.986030
v 0.483714 0.000000 1.000000
v 0.483714 -0.106116 0.986030
v 0.483714 -0.205000 0.945070
v 0.483714 -0.289914 0.879914
v 0.483714 -0.355070 0.795000
v 0.483714 -0.396030 0.696116
v 0.483714 -0.410000 0.590000
v 0.670000 0.410000 0.590000
v 0.670000 0.396030 0.696116
v 0.670000 0.355070 0.795000
v 0.670000 0.289914 0.879914
v 0.670000 0.205000 0.945070
v 0.670000 0.106116 0.986030
v 0.670000 0.000000 1.000000
v 0.670000 -0.106116 0.986030
v 0.670000 -0.205000 0.945070
v 0.670000 -0.289914 0.879914
v 0.670000 -0.355070 0.795000
v 0.670000 -0.396030 0.696116
v 0.670000 -0.410000 0.590000
v 0.483714 0.000000 0.829558
v 0.670000 0.000000 0.829558
v -0.480000 0.432000 0.590000
v -0.480000 0.417280 0.701810
v -0.480000 0.374123 0.806000
v -0.480000 0.305470 0.895470
v -0.480000 0.216000 0.964123
v -0.480000 0.111810 1.007280
v -0.480000 0.000000 1.022000
v -0.480000 -0.111810 1.007280
v -0.480000 -0.216000 0.964123
v -0.480000 -0.305470 0.895470
v -0.480000 -0.374123 0.806000
v -0.480000 -0.417280 0.701810
v -0.480000 -0.432000 0.590000
v -0.420000 0.432000 0.590000
v -0.420000 0.417280 0.701810
v -0.420000 0.374123 0.806000
v -0.420000 0.305470 0.895470
v -0.420000 0.216000 0.964123
v -0.420000 0.111810 1.007280
v -0.420000 0.000000 1.022000
v -0.420000 -0.111810 1.007280
v -0.420000 -0.216000 0.964123
v -0.420000 -0.305470 0.895470
v -0.420000 -0.374123 0.806000
v -0.420000 -0.417280 0.701810
v -0.420000 -0.432000 0.590000
v -0.480000 0.000000 0.842413
v -0.420000 0.000000 0.842413
v -0.030000 0.432000 0.590000
v -0.030000 0.417280 0.701810
v -0.030000 0.374123 0.806000
v -0.030000 0.305470 0.895470
v -0.030000 0.216000 0.964123
v -0.030000 0.111810 1.007280
v -0.030000 0.000000 1.022000
v -0.030000 -0.111810 1.007280
v -0.030000 -0.216000 0.964123
v -0.030000 -0.305470 0.895470
v -0.030000 -0.374123 0.806000
v -0.030000 -0.417280 0.701810
v -0.030000 -0.432000 0.590000
v 0.030000 0.432000 0.590000
v 0.030000 0.417280 0.701810
v 0.030000 0.374123 0.806000
v 0.030000 0.305470 0.895470
v 0.030000 0.216000 0.964123
v 0.030000 0.111810 1.007280
v 0.030000 0.000000 1.022000
v 0.030000 -0.111810 1.007280
v 0.030000 -0.216000 0.964123
v 0.030000 -0.305470 0.895470
v 0.030000 -0.374123 0.806000
v 0.030000 -0.417280 0.701810
v 0.030000 -0.432000 0.590000
v -0.030000 0.000000 0.842413
v 0.030000 0.000000 0.842413
v 0.420000 0.432000 0.590000
v 0.420000 0.417280 0.701810
v 0.420000 0.374123 0.806000
v 0.420000 0.305470 0.895470
v 0.420000 0.216000 0.964123
v 0.420000 0.111810 1.007280
v 0.420000 0.000000 1.022000
v 0.420000 -0.111810 1.007280
v 0.420000 -0.216000 0.964123
v 0.420000 -0.305470 0.895470
v 0.420000 -0.374123 0.806000
v 0.420000 -0.417280 0.701810
v 0.420000 -0.432000 0.590000
v 0.480000 0.432000 0.590000
v 0.480000 0.417280 0.701810
v 0.480000 0.374123 0.806000
v 0.480000 0.305470 0.895470
v 0.480000 0.216000 0.964123
v 0.480000 0.111810 1.007280
v 0.480000 0.000000 1.022000
v 0.480000 -0.111810 1.007280
v 0.480000 -0.216000 0.964123
v 0.480000 -0.305470 0.895470
v 0.480000 -0.374123 0.806000
v 0.480000 -0.417280 0.701810
v 0.480000 -0.432000 0.590000
v 0.420000 0.000000 0.842413
v 0.480000 0.000000 0.842413
v -0.505000 0.378500 0.587500
v -0.355000 0.378500 0.587500
v -0.355000 0.423500 0.587500
v -0.505000 0.423500 0.587500
v -0.505000 0.378500 0.662500
v -0.355000 0.378500 0.662500
v -0.355000 0.423500 0.662500
v -0.505000 0.423500 0.662500
v -0.465000 0.406500 0.630000
v -0.395000 0.406500 0.630000
v -0.395000 0.441500 0.630000
v -0.465000 0.441500 0.630000
v -0.465000 0.406500 0.680000
v -0.395000 0.406500 0.680000
v -0.395000 0.441500 0.680000
v -0.465000 0.441500 0.680000
v 0.355000 0.378500 0.587500
v 0.505000 0.378500 0.587500
v 0.505000 0.423500 0.587500
v 0.355000 0.423500 0.587500
v 0.355000 0.378500 0.662500
v 0.505000 0.378500 0.662500
v 0.505000 0.423500 0.662500
v 0.355000 0.423500 0.662500
v 0.395000 0.406500 0.630000
v 0.465000 0.406500 0.630000
v 0.465000 0.441500 0.630000
v 0.395000 0.441500 0.630000
v 0.395000 0.406500 0.680000
v 0.465000 0.406500 0.680000
v 0.465000 0.441500 0.680000
v 0.395000 0.441500 0.680000
v -0.075000 -0.451000 0.310000
v 0.075000 -0.451000 0.310000
v 0.075000 -0.425000 0.310000
v -0.075000 -0.425000 0.310000
v -0.075000 -0.451000 0.500000
v 0.075000 -0.451000 0.500000
v 0.075000 -0.425000 0.500000
v -0.075000 -0.425000 0.500000
v -0.035000 -0.460000 0.450000
v 0.035000 -0.460000 0.450000
v 0.035000 -0.438000 0.450000
v -0.035000 -0.438000 0.450000
v -0.035000 -0.460000 0.580000
v 0.035000 -0.460000 0.580000
v 0.035000 -0.438000 0.580000
v -0.035000 -0.438000 0.580000
v -0.035000 -0.464000 0.357500
v 0.035000 -0.464000 0.357500
v 0.035000 -0.446000 0.357500
v -0.035000 -0.446000 0.357500
v -0.035000 -0.464000 0.452500
v 0.035000 -0.464000 0.452500
v 0.035000 -0.446000 0.452500
v -0.035000 -0.446000 0.452500
v 0.000000 -0.468000 0.385000
v 0.014142 -0.468000 0.390858
v 0.010000 -0.458000 0.390858
v 0.000000 -0.453858 0.390858
v -0.010000 -0.458000 0.390858
v -0.014142 -0.468000 0.390858
v -0.010000 -0.478000 0.390858
v 0.000000 -0.482142 0.390858
v 0.010000 -0.478000 0.390858
v 0.020000 -0.468000 0.405000
v 0.014142 -0.453858 0.405000
v 0.000000 -0.448000 0.405000
v -0.014142 -0.453858 0.405000
v -0.020000 -0.468000 0.405000
v -0.014142 -0.482142 0.405000
v 0.000000 -0.488000 0.405000
v 0.014142 -0.482142 0.405000
v 0.014142 -0.468000 0.419142
v 0.010000 -0.458000 0.419142
v 0.000000 -0.453858 0.419142
v -0.010000 -0.458000 0.419142
v -0.014142 -0.468000 0.419142
v -0.010000 -0.478000 0.419142
v 0.000000 -0.482142 0.419142
v 0.010000 -0.478000 0.419142
v 0.000000 -0.468000 0.425000
v -0.711000 -0.130000 0.317500
v -0.661000 -0.130000 0.317500
v -0.661000 -0.060000 0.317500
v -0.711000 -0.060000 0.317500
v -0.711000 -0.130000 0.392500
v -0.661000 -0.130000 0.392500
v -0.661000 -0.060000 0.392500
v -0.711000 -0.060000 0.392500
v -0.711000 0.060000 0.317500
v -0.661000 0.060000 0.317500
v -0.661000 0.130000 0.317500
v -0.711000 0.130000 0.317500
v -0.711000 0.060000 0.392500
v -0.661000 0.060000 0.392500
v -0.661000 0.130000 0.392500
v -0.711000 0.130000 0.392500
v -0.722000 0.105000 0.355000
v -0.713000 0.120588 0.355000
v -0.695000 0.120588 0.355000
v -0.686000 0.105000 0.355000
v -0.695000 0.089412 0.355000
v -0.713000 0.089412 0.355000
v -0.722000 0.090933 0.407500
v -0.713000 0.104433 0.415294
v -0.695000 0.104433 0.415294
v -0.686000 0.090933 0.407500
v -0.695000 0.077433 0.399706
v -0.713000 0.077433 0.399706
v -0.722000 0.052500 0.445933
v -0.713000 0.060294 0.459433
v -0.695000 0.060294 0.459433
v -0.686000 0.052500 0.445933
v -0.695000 0.044706 0.432433
v -0.713000 0.044706 0.432433
v -0.722000 0.000000 0.460000
v -0.713000 0.000000 0.475588
v -0.695000 0.000000 0.475588
v -0.686000 0.000000 0.460000
v -0.695000 0.000000 0.444412
v -0.713000 0.000000 0.444412
v -0.722000 -0.052500 0.445933
v -0.713000 -0.060294 0.459433
v -0.695000 -0.060294 0.459433
v -0.686000 -0.052500 0.445933
v -0.695000 -0.044706 0.432433
v -0.713000 -0.044706 0.432433
v -0.722000 -0.090933 0.407500
v -0.713000 -0.104433 0.415294
v -0.695000 -0.104433 0.415294
v -0.686000 -0.090933 0.407500
v -0.695000 -0.077433 0.399706
v -0.713000 -0.077433 0.399706
v -0.722000 -0.105000 0.355000
v -0.713000 -0.120588 0.355000
v -0.695000 -0.120588 0.355000
v -0.686000 -0.105000 0.355000
v -0.695000 -0.089412 0.355000
v -0.713000 -0.089412 0.355000
v -0.722000 -0.090933 0.302500
v -0.713000 -0.104433 0.294706
v -0.695000 -0.104433 0.294706
v -0.686000 -0.090933 0.302500
v -0.695000 -0.077433 0.310294
v -0.713000 -0.077433 0.310294
v -0.722000 -0.052500 0.264067
v -0.713000 -0.060294 0.250567
v -0.695000 -0.060294 0.250567
v -0.686000 -0.052500 0.264067
v -0.695000 -0.044706 0.277567
v -0.713000 -0.044706 0.277567
v -0.722000 0.000000 0.250000
v -0.713000 0.000000 0.234412
v -0.695000 0.000000 0.234412
v -0.686000 0.000000 0.250000
v -0.695000 0.000000 0.265588
v -0.713000 0.000000 0.265588
v -0.722000 0.052500 0.264067
v -0.713000 0.060294 0.250567
v -0.695000 0.060294 0.250567
v -0.686000 0.052500 0.264067
v -0.695000 0.044706 0.277567
v -0.713000 0.044706 0.277567
v -0.722000 0.090933 0.302500
v -0.713000 0.104433 0.294706
v -0.695000 0.104433 0.294706
v -0.686000 0.090933 0.302500
v -0.695000 0.077433 0.310294
v -0.713000 0.077433 0.310294
v 0.661000 -0.130000 0.317500
v 0.711000 -0.130000 0.317500
v 0.711000 -0.060000 0.317500
v 0.661000 -0.060000 0.317500
v 0.661000 -0.130000 0.392500
v 0.711000 -0.130000 0.392500
v 0.711000 -0.060000 0.392500
v 0.661000 -0.060000 0.392500
v 0.661000 0.060000 0.317500
v 0.711000 0.060000 0.317500
v 0.711000 0.130000 0.317500
v 0.661000 0.130000 0.317500
v 0.661000 0.060000 0.392500
v 0.711000 0.060000 0.392500
v 0.711000 0.130000 0.392500
v 0.661000 0.130000 0.392500
v 0.722000 0.105000 0.355000
v 0.713000 0.120588 0.355000
v 0.695000 0.120588 0.355000
v 0.686000 0.105000 0.355000
v 0.695000 0.089412 0.355000
v 0.713000 0.089412 0.355000
v 0.722000 0.090933 0.407500
v 0.713000 0.104433 0.415294
v 0.695000 0.104433 0.415294
v 0.686000 0.090933 0.407500
v 0.695000 0.077433 0.399706
v 0.713000 0.077433 0.399706
v 0.722000 0.052500 0.445933
v 0.713000 0.060294 0.459433
v 0.695000 0.060294 0.459433
v 0.686000 0.052500 0.445933
v 0.695000 0.044706 0.432433
v 0.713000 0.044706 0.432433
v 0.722000 0.000000 0.460000
v 0.713000 0.000000 0.475588
v 0.695000 0.000000 0.475588
v 0.686000 0.000000 0.460000
v 0.695000 0.000000 0.444412
v 0.713000 0.000000 0.444412
v 0.722000 -0.052500 0.445933
v 0.713000 -0.060294 0.459433
v 0.695000 -0.060294 0.459433
v 0.686000 -0.052500 0.445933
v 0.695000 -0.044706 0.432433
v 0.713000 -0.044706 0.432433
v 0.722000 -0.090933 0.407500
v 0.713000 -0.104433 0.415294
v 0.695000 -0.104433 0.415294
v 0.686000 -0.090933 0.407500
v 0.695000 -0.077433 0.399706
v 0.713000 -0.077433 0.399706
v 0.722000 -0.105000 0.355000
v 0.713000 -0.120588 0.355000
v 0.695000 -0.120588 0.355000
v 0.686000 -0.105000 0.355000
v 0.695000 -0.089412 0.355000
v 0.713000 -0.089412 0.355000
v 0.722000 -0.090933 0.302500
v 0.713000 -0.104433 0.294706
v 0.695000 -0.104433 0.294706
v 0.686000 -0.090933 0.302500
v 0.695000 -0.077433 0.310294
v 0.713000 -0.077433 0.310294
v 0.722000 -0.052500 0.264067
v 0.713000 -0.060294 0.250567
v 0.695000 -0.060294 0.250567
v 0.686000 -0.052500 0.264067
v 0.695000 -0.044706 0.277567
v 0.713000 -0.044706 0.277567
v 0.722000 0.000000 0.250000
v 0.713000 0.000000 0.234412
v 0.695000 0.000000 0.234412
v 0.686000 0.000000 0.250000
v 0.695000 0.000000 0.265588
v 0.713000 0.000000 0.265588
v 0.722000 0.052500 0.264067
v 0.713000 0.060294 0.250567
v 0.695000 0.060294 0.250567
v 0.686000 0.052500 0.264067
v 0.695000 0.044706 0.277567
v 0.713000 0.044706 0.277567
v 0.722000 0.090933 0.302500
v 0.713000 0.104433 0.294706
v 0.695000 0.104433 0.294706
v 0.686000 0.090933 0.302500
v 0.695000 0.077433 0.310294
v 0.713000 0.077433 0.310294
v -0.535000 -0.439000 0.159000
v -0.526515 -0.439000 0.162515
v -0.529000 -0.433000 0.162515
v -0.535000 -0.430515 0.162515
v -0.541000 -0.433000 0.162515
v -0.543485 -0.439000 0.162515
v -0.541000 -0.445000 0.162515
v -0.535000 -0.447485 0.162515
v -0.529000 -0.445000 0.162515
v -0.523000 -0.439000 0.171000
v -0.526515 -0.430515 0.171000
v -0.535000 -0.427000 0.171000
v -0.543485 -0.430515 0.171000
v -0.547000 -0.439000 0.171000
v -0.543485 -0.447485 0.171000
v -0.535000 -0.451000 0.171000
v -0.526515 -0.447485 0.171000
v -0.526515 -0.439000 0.179485
v -0.529000 -0.433000 0.179485
v -0.535000 -0.430515 0.179485
v -0.541000 -0.433000 0.179485
v -0.543485 -0.439000 0.179485
v -0.541000 -0.445000 0.179485
v -0.535000 -0.447485 0.179485
v -0.529000 -0.445000 0.179485
v -0.535000 -0.439000 0.183000
v -0.535000 0.439000 0.159000
v -0.526515 0.439000 0.162515
v -0.529000 0.445000 0.162515
v -0.535000 0.447485 0.162515
v -0.541000 0.445000 0.162515
v -0.543485 0.439000 0.162515
v -0.541000 0.433000 0.162515
v -0.535000 0.430515 0.162515
v -0.529000 0.433000 0.162515
v -0.523000 0.439000 0.171000
v -0.526515 0.447485 0.171000
v -0.535000 0.451000 0.171000
v -0.543485 0.447485 0.171000
v -0.547000 0.439000 0.171000
v -0.543485 0.430515 0.171000
v -0.535000 0.427000 0.171000
v -0.526515 0.430515 0.171000
v -0.526515 0.439000 0.179485
v -0.529000 0.445000 0.179485
v -0.535000 0.447485 0.179485
v -0.541000 0.445000 0.179485
v -0.543485 0.439000 0.179485
v -0.541000 0.433000 0.179485
v -0.535000 0.430515 0.179485
v -0.529000 0.433000 0.179485
v -0.535000 0.439000 0.183000
v 0.535000 -0.439000 0.159000
v 0.543485 -0.439000 0.162515
v 0.541000 -0.433000 0.162515
v 0.535000 -0.430515 0.162515
v 0.529000 -0.433000 0.162515
v 0.526515 -0.439000 0.162515
v 0.529000 -0.445000 0.162515
v 0.535000 -0.447485 0.162515
v 0.541000 -0.445000 0.162515
v 0.547000 -0.439000 0.171000
v 0.543485 -0.430515 0.171000
v 0.535000 -0.427000 0.171000
v 0.526515 -0.430515 0.171000
v 0.523000 -0.439000 0.171000
v 0.526515 -0.447485 0.171000
v 0.535000 -0.451000 0.171000
v 0.543485 -0.447485 0.171000
v 0.543485 -0.439000 0.179485
v 0.541000 -0.433000 0.179485
v 0.535000 -0.430515 0.179485
v 0.529000 -0.433000 0.179485
v 0.526515 -0.439000 0.179485
v 0.529000 -0.445000 0.179485
v 0.535000 -0.447485 0.179485
v 0.541000 -0.445000 0.179485
v 0.535000 -0.439000 0.183000
v 0.535000 0.439000 0.159000
v 0.543485 0.439000 0.162515
v 0.541000 0.445000 0.162515
v 0.535000 0.447485 0.162515
v 0.529000 0.445000 0.162515
v 0.526515 0.439000 0.162515
v 0.529000 0.433000 0.162515
v 0.535000 0.430515 0.162515
v 0.541000 0.433000 0.162515
v 0.547000 0.439000 0.171000
v 0.543485 0.447485 0.171000
v 0.535000 0.451000 0.171000
v 0.526515 0.447485 0.171000
v 0.523000 0.439000 0.171000
v 0.526515 0.430515 0.171000
v 0.535000 0.427000 0.171000
v 0.543485 0.430515 0.171000
v 0.543485 0.439000 0.179485
v 0.541000 0.445000 0.179485
v 0.535000 0.447485 0.179485
v 0.529000 0.445000 0.179485
v 0.526515 0.439000 0.179485
v 0.529000 0.433000 0.179485
v 0.535000 0.430515 0.179485
v 0.541000 0.433000 0.179485
v 0.535000 0.439000 0.183000
v -0.535000 -0.439000 0.253000
v -0.526515 -0.439000 0.256515
v -0.529000 -0.433000 0.256515
v -0.535000 -0.430515 0.256515
v -0.541000 -0.433000 0.256515
v -0.543485 -0.439000 0.256515
v -0.541000 -0.445000 0.256515
v -0.535000 -0.447485 0.256515
v -0.529000 -0.445000 0.256515
v -0.523000 -0.439000 0.265000
v -0.526515 -0.430515 0.265000
v -0.535000 -0.427000 0.265000
v -0.543485 -0.430515 0.265000
v -0.547000 -0.439000 0.265000
v -0.543485 -0.447485 0.265000
v -0.535000 -0.451000 0.265000
v -0.526515 -0.447485 0.265000
v -0.526515 -0.439000 0.273485
v -0.529000 -0.433000 0.273485
v -0.535000 -0.430515 0.273485
v -0.541000 -0.433000 0.273485
v -0.543485 -0.439000 0.273485
v -0.541000 -0.445000 0.273485
v -0.535000 -0.447485 0.273485
v -0.529000 -0.445000 0.273485
v -0.535000 -0.439000 0.277000
v -0.535000 0.439000 0.253000
v -0.526515 0.439000 0.256515
v -0.529000 0.445000 0.256515
v -0.535000 0.447485 0.256515
v -0.541000 0.445000 0.256515
v -0.543485 0.439000 0.256515
v -0.541000 0.433000 0.256515
v -0.535000 0.430515 0.256515
v -0.529000 0.433000 0.256515
v -0.523000 0.439000 0.265000
v -0.526515 0.447485 0.265000
v -0.535000 0.451000 0.265000
v -0.543485 0.447485 0.265000
v -0.547000 0.439000 0.265000
v -0.543485 0.430515 0.265000
v -0.535000 0.427000 0.265000
v -0.526515 0.430515 0.265000
v -0.526515 0.439000 0.273485
v -0.529000 0.445000 0.273485
v -0.535000 0.447485 0.273485
v -0.541000 0.445000 0.273485
v -0.543485 0.439000 0.273485
v -0.541000 0.433000 0.273485
v -0.535000 0.430515 0.273485
v -0.529000 0.433000 0.273485
v -0.535000 0.439000 0.277000
v 0.535000 -0.439000 0.253000
v 0.543485 -0.439000 0.256515
v 0.541000 -0.433000 0.256515
v 0.535000 -0.430515 0.256515
v 0.529000 -0.433000 0.256515
v 0.526515 -0.439000 0.256515
v 0.529000 -0.445000 0.256515
v 0.535000 -0.447485 0.256515
v 0.541000 -0.445000 0.256515
v 0.547000 -0.439000 0.265000
v 0.543485 -0.430515 0.265000
v 0.535000 -0.427000 0.265000
v 0.526515 -0.430515 0.265000
v 0.523000 -0.439000 0.265000
v 0.526515 -0.447485 0.265000
v 0.535000 -0.451000 0.265000
v 0.543485 -0.447485 0.265000
v 0.543485 -0.439000 0.273485
v 0.541000 -0.433000 0.273485
v 0.535000 -0.430515 0.273485
v 0.529000 -0.433000 0.273485
v 0.526515 -0.439000 0.273485
v 0.529000 -0.445000 0.273485
v 0.535000 -0.447485 0.273485
v 0.541000 -0.445000 0.273485
v 0.535000 -0.439000 0.277000
v 0.535000 0.439000 0.253000
v 0.543485 0.439000 0.256515
v 0.541000 0.445000 0.256515
v 0.535000 0.447485 0.256515
v 0.529000 0.445000 0.256515
v 0.526515 0.439000 0.256515
v 0.529000 0.433000 0.256515
v 0.535000 0.430515 0.256515
v 0.541000 0.433000 0.256515
v 0.547000 0.439000 0.265000
v 0.543485 0.447485 0.265000
v 0.535000 0.451000 0.265000
v 0.526515 0.447485 0.265000
v 0.523000 0.439000 0.265000
v 0.526515 0.430515 0.265000
v 0.535000 0.427000 0.265000
v 0.543485 0.430515 0.265000
v 0.543485 0.439000 0.273485
v 0.541000 0.445000 0.273485
v 0.535000 0.447485 0.273485
v 0.529000 0.445000 0.273485
v 0.526515 0.439000 0.273485
v 0.529000 0.433000 0.273485
v 0.535000 0.430515 0.273485
v 0.541000 0.433000 0.273485
v 0.535000 0.439000 0.277000
v -0.535000 -0.439000 0.347000
v -0.526515 -0.439000 0.350515
v -0.529000 -0.433000 0.350515
v -0.535000 -0.430515 0.350515
v -0.541000 -0.433000 0.350515
v -0.543485 -0.439000 0.350515
v -0.541000 -0.445000 0.350515
v -0.535000 -0.447485 0.350515
v -0.529000 -0.445000 0.350515
v -0.523000 -0.439000 0.359000
v -0.526515 -0.430515 0.359000
v -0.535000 -0.427000 0.359000
v -0.543485 -0.430515 0.359000
v -0.547000 -0.439000 0.359000
v -0.543485 -0.447485 0.359000
v -0.535000 -0.451000 0.359000
v -0.526515 -0.447485 0.359000
v -0.526515 -0.439000 0.367485
v -0.529000 -0.433000 0.367485
v -0.535000 -0.430515 0.367485
v -0.541000 -0.433000 0.367485
v -0.543485 -0.439000 0.367485
v -0.541000 -0.445000 0.367485
v -0.535000 -0.447485 0.367485
v -0.529000 -0.445000 0.367485
v -0.535000 -0.439000 0.371000
v -0.535000 0.439000 0.347000
v -0.526515 0.439000 0.350515
v -0.529000 0.445000 0.350515
v -0.535000 0.447485 0.350515
v -0.541000 0.445000 0.350515
v -0.543485 0.439000 0.350515
v -0.541000 0.433000 0.350515
v -0.535000 0.430515 0.350515
v -0.529000 0.433000 0.350515
v -0.523000 0.439000 0.359000
v -0.526515 0.447485 0.359000
v -0.535000 0.451000 0.359000
v -0.543485 0.447485 0.359000
v -0.547000 0.439000 0.359000
v -0.543485 0.430515 0.359000
v -0.535000 0.427000 0.359000
v -0.526515 0.430515 0.359000
v -0.526515 0.439000 0.367485
v -0.529000 0.445000 0.367485
v -0.535000 0.447485 0.367485
v -0.541000 0.445000 0.367485
v -0.543485 0.439000 0.367485
v -0.541000 0.433000 0.367485
v -0.535000 0.430515 0.367485
v -0.529000 0.433000 0.367485
v -0.535000 0.439000 0.371000
v 0.535000 -0.439000 0.347000
v 0.543485 -0.439000 0.350515
v 0.541000 -0.433000 0.350515
v 0.535000 -0.430515 0.350515
v 0.529000 -0.433000 0.350515
v 0.526515 -0.439000 0.350515
v 0.529000 -0.445000 0.350515
v 0.535000 -0.447485 0.350515
v 0.541000 -0.445000 0.350515
v 0.547000 -0.439000 0.359000
v 0.543485 -0.430515 0.359000
v 0.535000 -0.427000 0.359000
v 0.526515 -0.430515 0.359000
v 0.523000 -0.439000 0.359000
v 0.526515 -0.447485 0.359000
v 0.535000 -0.451000 0.359000
v 0.543485 -0.447485 0.359000
v 0.543485 -0.439000 0.367485
v 0.541000 -0.433000 0.367485
v 0.535000 -0.430515 0.367485
v 0.529000 -0.433000 0.367485
v 0.526515 -0.439000 0.367485
v 0.529000 -0.445000 0.367485
v 0.535000 -0.447485 0.367485
v 0.541000 -0.445000 0.367485
v 0.535000 -0.439000 0.371000
v 0.535000 0.439000 0.347000
v 0.543485 0.439000 0.350515
v 0.541000 0.445000 0.350515
v 0.535000 0.447485 0.350515
v 0.529000 0.445000 0.350515
v 0.526515 0.439000 0.350515
v 0.529000 0.433000 0.350515
v 0.535000 0.430515 0.350515
v 0.541000 0.433000 0.350515
v 0.547000 0.439000 0.359000
v 0.543485 0.447485 0.359000
v 0.535000 0.451000 0.359000
v 0.526515 0.447485 0.359000
v 0.523000 0.439000 0.359000
v 0.526515 0.430515 0.359000
v 0.535000 0.427000 0.359000
v 0.543485 0.430515 0.359000
v 0.543485 0.439000 0.367485
v 0.541000 0.445000 0.367485
v 0.535000 0.447485 0.367485
v 0.529000 0.445000 0.367485
v 0.526515 0.439000 0.367485
v 0.529000 0.433000 0.367485
v 0.535000 0.430515 0.367485
v 0.541000 0.433000 0.367485
v 0.535000 0.439000 0.371000
v -0.535000 -0.439000 0.441000
v -0.526515 -0.439000 0.444515
v -0.529000 -0.433000 0.444515
v -0.535000 -0.430515 0.444515
v -0.541000 -0.433000 0.444515
v -0.543485 -0.439000 0.444515
v -0.541000 -0.445000 0.444515
v -0.535000 -0.447485 0.444515
v -0.529000 -0.445000 0.444515
v -0.523000 -0.439000 0.453000
v -0.526515 -0.430515 0.453000
v -0.535000 -0.427000 0.453000
v -0.543485 -0.430515 0.453000
v -0.547000 -0.439000 0.453000
v -0.543485 -0.447485 0.453000
v -0.535000 -0.451000 0.453000
v -0.526515 -0.447485 0.453000
v -0.526515 -0.439000 0.461485
v -0.529000 -0.433000 0.461485
v -0.535000 -0.430515 0.461485
v -0.541000 -0.433000 0.461485
v -0.543485 -0.439000 0.461485
v -0.541000 -0.445000 0.461485
v -0.535000 -0.447485 0.461485
v -0.529000 -0.445000 0.461485
v -0.535000 -0.439000 0.465000
v -0.535000 0.439000 0.441000
v -0.526515 0.439000 0.444515
v -0.529000 0.445000 0.444515
v -0.535000 0.447485 0.444515
v -0.541000 0.445000 0.444515
v -0.543485 0.439000 0.444515
v -0.541000 0.433000 0.444515
v -0.535000 0.430515 0.444515
v -0.529000 0.433000 0.444515
v -0.523000 0.439000 0.453000
v -0.526515 0.447485 0.453000
v -0.535000 0.451000 0.453000
v -0.543485 0.447485 0.453000
v -0.547000 0.439000 0.453000
v -0.543485 0.430515 0.453000
v -0.535000 0.427000 0.453000
v -0.526515 0.430515 0.453000
v -0.526515 0.439000 0.461485
v -0.529000 0.445000 0.461485
v -0.535000 0.447485 0.461485
v -0.541000 0.445000 0.461485
v -0.543485 0.439000 0.461485
v -0.541000 0.433000 0.461485
v -0.535000 0.430515 0.461485
v -0.529000 0.433000 0.461485
v -0.535000 0.439000 0.465000
v 0.535000 -0.439000 0.441000
v 0.543485 -0.439000 0.444515
v 0.541000 -0.433000 0.444515
v 0.535000 -0.430515 0.444515
v 0.529000 -0.433000 0.444515
v 0.526515 -0.439000 0.444515
v 0.529000 -0.445000 0.444515
v 0.535000 -0.447485 0.444515
v 0.541000 -0.445000 0.444515
v 0.547000 -0.439000 0.453000
v 0.543485 -0.430515 0.453000
v 0.535000 -0.427000 0.453000
v 0.526515 -0.430515 0.453000
v 0.523000 -0.439000 0.453000
v 0.526515 -0.447485 0.453000
v 0.535000 -0.451000 0.453000
v 0.543485 -0.447485 0.453000
v 0.543485 -0.439000 0.461485
v 0.541000 -0.433000 0.461485
v 0.535000 -0.430515 0.461485
v 0.529000 -0.433000 0.461485
v 0.526515 -0.439000 0.461485
v 0.529000 -0.445000 0.461485
v 0.535000 -0.447485 0.461485
v 0.541000 -0.445000 0.461485
v 0.535000 -0.439000 0.465000
v 0.535000 0.439000 0.441000
v 0.543485 0.439000 0.444515
v 0.541000 0.445000 0.444515
v 0.535000 0.447485 0.444515
v 0.529000 0.445000 0.444515
v 0.526515 0.439000 0.444515
v 0.529000 0.433000 0.444515
v 0.535000 0.430515 0.444515
v 0.541000 0.433000 0.444515
v 0.547000 0.439000 0.453000
v 0.543485 0.447485 0.453000
v 0.535000 0.451000 0.453000
v 0.526515 0.447485 0.453000
v 0.523000 0.439000 0.453000
v 0.526515 0.430515 0.453000
v 0.535000 0.427000 0.453000
v 0.543485 0.430515 0.453000
v 0.543485 0.439000 0.461485
v 0.541000 0.445000 0.461485
v 0.535000 0.447485 0.461485
v 0.529000 0.445000 0.461485
v 0.526515 0.439000 0.461485
v 0.529000 0.433000 0.461485
v 0.535000 0.430515 0.461485
v 0.541000 0.433000 0.461485
v 0.535000 0.439000 0.465000
v -0.535000 -0.439000 0.535000
v -0.526515 -0.439000 0.538515
v -0.529000 -0.433000 0.538515
v -0.535000 -0.430515 0.538515
v -0.541000 -0.433000 0.538515
v -0.543485 -0.439000 0.538515
v -0.541000 -0.445000 0.538515
v -0.535000 -0.447485 0.538515
v -0.529000 -0.445000 0.538515
v -0.523000 -0.439000 0.547000
v -0.526515 -0.430515 0.547000
v -0.535000 -0.427000 0.547000
v -0.543485 -0.430515 0.547000
v -0.547000 -0.439000 0.547000
v -0.543485 -0.447485 0.547000
v -0.535000 -0.451000 0.547000
v -0.526515 -0.447485 0.547000
v -0.526515 -0.439000 0.555485
v -0.529000 -0.433000 0.555485
v -0.535000 -0.430515 0.555485
v -0.541000 -0.433000 0.555485
v -0.543485 -0.439000 0.555485
v -0.541000 -0.445000 0.555485
v -0.535000 -0.447485 0.555485
v -0.529000 -0.445000 0.555485
v -0.535000 -0.439000 0.559000
v -0.535000 0.439000 0.535000
v -0.526515 0.439000 0.538515
v -0.529000 0.445000 0.538515
v -0.535000 0.447485 0.538515
v -0.541000 0.445000 0.538515
v -0.543485 0.439000 0.538515
v -0.541000 0.433000 0.538515
v -0.535000 0.430515 0.538515
v -0.529000 0.433000 0.538515
v -0.523000 0.439000 0.547000
v -0.526515 0.447485 0.547000
v -0.535000 0.451000 0.547000
v -0.543485 0.447485 0.547000
v -0.547000 0.439000 0.547000
v -0.543485 0.430515 0.547000
v -0.535000 0.427000 0.547000
v -0.526515 0.430515 0.547000
v -0.526515 0.439000 0.555485
v -0.529000 0.445000 0.555485
v -0.535000 0.447485 0.555485
v -0.541000 0.445000 0.555485
v -0.543485 0.439000 0.555485
v -0.541000 0.433000 0.555485
v -0.535000 0.430515 0.555485
v -0.529000 0.433000 0.555485
v -0.535000 0.439000 0.559000
v 0.535000 -0.439000 0.535000
v 0.543485 -0.439000 0.538515
v 0.541000 -0.433000 0.538515
v 0.535000 -0.430515 0.538515
v 0.529000 -0.433000 0.538515
v 0.526515 -0.439000 0.538515
v 0.529000 -0.445000 0.538515
v 0.535000 -0.447485 0.538515
v 0.541000 -0.445000 0.538515
v 0.547000 -0.439000 0.547000
v 0.543485 -0.430515 0.547000
v 0.535000 -0.427000 0.547000
v 0.526515 -0.430515 0.547000
v 0.523000 -0.439000 0.547000
v 0.526515 -0.447485 0.547000
v 0.535000 -0.451000 0.547000
v 0.543485 -0.447485 0.547000
v 0.543485 -0.439000 0.555485
v 0.541000 -0.433000 0.555485
v 0.535000 -0.430515 0.555485
v 0.529000 -0.433000 0.555485
v 0.526515 -0.439000 0.555485
v 0.529000 -0.445000 0.555485
v 0.535000 -0.447485 0.555485
v 0.541000 -0.445000 0.555485
v 0.535000 -0.439000 0.559000
v 0.535000 0.439000 0.535000
v 0.543485 0.439000 0.538515
v 0.541000 0.445000 0.538515
v 0.535000 0.447485 0.538515
v 0.529000 0.445000 0.538515
v 0.526515 0.439000 0.538515
v 0.529000 0.433000 0.538515
v 0.535000 0.430515 0.538515
v 0.541000 0.433000 0.538515
v 0.547000 0.439000 0.547000
v 0.543485 0.447485 0.547000
v 0.535000 0.451000 0.547000
v 0.526515 0.447485 0.547000
v 0.523000 0.439000 0.547000
v 0.526515 0.430515 0.547000
v 0.535000 0.427000 0.547000
v 0.543485 0.430515 0.547000
v 0.543485 0.439000 0.555485
v 0.541000 0.445000 0.555485
v 0.535000 0.447485 0.555485
v 0.529000 0.445000 0.555485
v 0.526515 0.439000 0.555485
v 0.529000 0.433000 0.555485
v 0.535000 0.430515 0.555485
v 0.541000 0.433000 0.555485
v 0.535000 0.439000 0.559000
v -0.450000 -0.420000 0.621000
v -0.440101 -0.420000 0.625101
v -0.443000 -0.413000 0.625101
v -0.450000 -0.410101 0.625101
v -0.457000 -0.413000 0.625101
v -0.459899 -0.420000 0.625101
v -0.457000 -0.427000 0.625101
v -0.450000 -0.429899 0.625101
v -0.443000 -0.427000 0.625101
v -0.436000 -0.420000 0.635000
v -0.440101 -0.410101 0.635000
v -0.450000 -0.406000 0.635000
v -0.459899 -0.410101 0.635000
v -0.464000 -0.420000 0.635000
v -0.459899 -0.429899 0.635000
v -0.450000 -0.434000 0.635000
v -0.440101 -0.429899 0.635000
v -0.440101 -0.420000 0.644899
v -0.443000 -0.413000 0.644899
v -0.450000 -0.410101 0.644899
v -0.457000 -0.413000 0.644899
v -0.459899 -0.420000 0.644899
v -0.457000 -0.427000 0.644899
v -0.450000 -0.429899 0.644899
v -0.443000 -0.427000 0.644899
v -0.450000 -0.420000 0.649000
v -0.450000 0.420000 0.621000
v -0.440101 0.420000 0.625101
v -0.443000 0.427000 0.625101
v -0.450000 0.429899 0.625101
v -0.457000 0.427000 0.625101
v -0.459899 0.420000 0.625101
v -0.457000 0.413000 0.625101
v -0.450000 0.410101 0.625101
v -0.443000 0.413000 0.625101
v -0.436000 0.420000 0.635000
v -0.440101 0.429899 0.635000
v -0.450000 0.434000 0.635000
v -0.459899 0.429899 0.635000
v -0.464000 0.420000 0.635000
v -0.459899 0.410101 0.635000
v -0.450000 0.406000 0.635000
v -0.440101 0.410101 0.635000
v -0.440101 0.420000 0.644899
v -0.443000 0.427000 0.644899
v -0.450000 0.429899 0.644899
v -0.457000 0.427000 0.644899
v -0.459899 0.420000 0.644899
v -0.457000 0.413000 0.644899
v -0.450000 0.410101 0.644899
v -0.443000 0.413000 0.644899
v -0.450000 0.420000 0.649000
v 0.000000 -0.420000 0.621000
v 0.009899 -0.420000 0.625101
v 0.007000 -0.413000 0.625101
v 0.000000 -0.410101 0.625101
v -0.007000 -0.413000 0.625101
v -0.009899 -0.420000 0.625101
v -0.007000 -0.427000 0.625101
v 0.000000 -0.429899 0.625101
v 0.007000 -0.427000 0.625101
v 0.014000 -0.420000 0.635000
v 0.009899 -0.410101 0.635000
v 0.000000 -0.406000 0.635000
v -0.009899 -0.410101 0.635000
v -0.014000 -0.420000 0.635000
v -0.009899 -0.429899 0.635000
v 0.000000 -0.434000 0.635000
v 0.009899 -0.429899 0.635000
v 0.009899 -0.420000 0.644899
v 0.007000 -0.413000 0.644899
v 0.000000 -0.410101 0.644899
v -0.007000 -0.413000 0.644899
v -0.009899 -0.420000 0.644899
v -0.007000 -0.427000 0.644899
v 0.000000 -0.429899 0.644899
v 0.007000 -0.427000 0.644899
v 0.000000 -0.420000 0.649000
v 0.000000 0.420000 0.621000
v 0.009899 0.420000 0.625101
v 0.007000 0.427000 0.625101
v 0.000000 0.429899 0.625101
v -0.007000 0.427000 0.625101
v -0.009899 0.420000 0.625101
v -0.007000 0.413000 0.625101
v 0.000000 0.410101 0.625101
v 0.007000 0.413000 0.625101
v 0.014000 0.420000 0.635000
v 0.009899 0.429899 0.635000
v 0.000000 0.434000 0.635000
v -0.009899 0.429899 0.635000
v -0.014000 0.420000 0.635000
v -0.009899 0.410101 0.635000
v 0.000000 0.406000 0.635000
v 0.009899 0.410101 0.635000
v 0.009899 0.420000 0.644899
v 0.007000 0.427000 0.644899
v 0.000000 0.429899 0.644899
v -0.007000 0.427000 0.644899
v -0.009899 0.420000 0.644899
v -0.007000 0.413000 0.644899
v 0.000000 0.410101 0.644899
v 0.007000 0.413000 0.644899
v 0.000000 0.420000 0.649000
v 0.450000 -0.420000 0.621000
v 0.459899 -0.420000 0.625101
v 0.457000 -0.413000 0.625101
v 0.450000 -0.410101 0.625101
v 0.443000 -0.413000 0.625101
v 0.440101 -0.420000 0.625101
v 0.443000 -0.427000 0.625101
v 0.450000 -0.429899 0.625101
v 0.457000 -0.427000 0.625101
v 0.464000 -0.420000 0.635000
v 0.459899 -0.410101 0.635000
v 0.450000 -0.406000 0.635000
v 0.440101 -0.410101 0.635000
v 0.436000 -0.420000 0.635000
v 0.440101 -0.429899 0.635000
v 0.450000 -0.434000 0.635000
v 0.459899 -0.429899 0.635000
v 0.459899 -0.420000 0.644899
v 0.457000 -0.413000 0.644899
v 0.450000 -0.410101 0.644899
v 0.443000 -0.413000 0.644899
v 0.440101 -0.420000 0.644899
v 0.443000 -0.427000 0.644899
v 0.450000 -0.429899 0.644899
v 0.457000 -0.427000 0.644899
v 0.450000 -0.420000 0.649000
v 0.450000 0.420000 0.621000
v 0.459899 0.420000 0.625101
v 0.457000 0.427000 0.625101
v 0.450000 0.429899 0.625101
v 0.443000 0.427000 0.625101
v 0.440101 0.420000 0.625101
v 0.443000 0.413000 0.625101
v 0.450000 0.410101 0.625101
v 0.457000 0.413000 0.625101
v 0.464000 0.420000 0.635000
v 0.459899 0.429899 0.635000
v 0.450000 0.434000 0.635000
v 0.440101 0.429899 0.635000
v 0.436000 0.420000 0.635000
v 0.440101 0.410101 0.635000
v 0.450000 0.406000 0.635000
v 0.459899 0.410101 0.635000
v 0.459899 0.420000 0.644899
v 0.457000 0.427000 0.644899
v 0.450000 0.429899 0.644899
v 0.443000 0.427000 0.644899
v 0.440101 0.420000 0.644899
v 0.443000 0.413000 0.644899
v 0.450000 0.410101 0.644899
v 0.457000 0.413000 0.644899
v 0.450000 0.420000 0.649000
f 1 4 3 2
f 5 6 7 8
f 1 2 6 5
f 4 8 7 3
f 1 5 8 4
f 2 3 7 6
f 9 12 11 10
f 13 14 15 16
f 9 10 14 13
f 12 16 15 11
f 9 13 16 12
f 10 11 15 14
f 17 20 19 18
f 21 22 23 24
f 17 18 22 21
f 20 24 23 19
f 17 21 24 20
f 18 19 23 22
f 25 28 27 26
f 29 30 31 32
f 25 26 30 29
f 28 32 31 27
f 25 29 32 28
f 26 27 31 30
f 33 36 35 34
f 37 38 39 40
f 33 34 38 37
f 36 40 39 35
f 33 37 40 36
f 34 35 39 38
f 41 44 43 42
f 45 46 47 48
f 41 42 46 45
f 44 48 47 43
f 41 45 48 44
f 42 43 47 46
f 49 52 51 50
f 53 54 55 56
f 49 50 54 53
f 52 56 55 51
f 49 53 56 52
f 50 51 55 54
f 57 60 59 58
f 61 62 63 64
f 57 58 62 61
f 60 64 63 59
f 57 61 64 60
f 58 59 63 62
f 65 68 67 66
f 69 70 71 72
f 65 66 70 69
f 68 72 71 67
f 65 69 72 68
f 66 67 71 70
f 73 76 75 74
f 77 78 79 80
f 73 74 78 77
f 76 80 79 75
f 73 77 80 76
f 74 75 79 78
f 81 84 83 82
f 85 86 87 88
f 81 82 86 85
f 84 88 87 83
f 81 85 88 84
f 82 83 87 86
f 89 92 91 90
f 93 94 95 96
f 89 90 94 93
f 92 96 95 91
f 89 93 96 92
f 90 91 95 94
f 97 100 99 98
f 101 102 103 104
f 97 98 102 101
f 100 104 103 99
f 97 101 104 100
f 98 99 103 102
f 105 108 107 106
f 109 110 111 112
f 105 106 110 109
f 108 112 111 107
f 105 109 112 108
f 106 107 111 110
f 113 116 115 114
f 117 118 119 120
f 113 114 118 117
f 116 120 119 115
f 113 117 120 116
f 114 115 119 118
f 121 124 123 122
f 125 126 127 128
f 121 122 126 125
f 124 128 127 123
f 121 125 128 124
f 122 123 127 126
f 129 132 131 130
f 133 134 135 136
f 129 130 134 133
f 132 136 135 131
f 129 133 136 132
f 130 131 135 134
f 137 140 139 138
f 141 142 143 144
f 137 138 142 141
f 140 144 143 139
f 137 141 144 140
f 138 139 143 142
f 145 148 147 146
f 149 150 151 152
f 145 146 150 149
f 148 152 151 147
f 145 149 152 148
f 146 147 151 150
f 153 156 155 154
f 157 158 159 160
f 153 154 158 157
f 156 160 159 155
f 153 157 160 156
f 154 155 159 158
f 161 164 163 162
f 165 166 167 168
f 161 162 166 165
f 164 168 167 163
f 161 165 168 164
f 162 163 167 166
f 169 172 171 170
f 173 174 175 176
f 169 170 174 173
f 172 176 175 171
f 169 173 176 172
f 170 171 175 174
f 177 180 179 178
f 181 182 183 184
f 177 178 182 181
f 180 184 183 179
f 177 181 184 180
f 178 179 183 182
f 185 188 187 186
f 189 190 191 192
f 185 186 190 189
f 188 192 191 187
f 185 189 192 188
f 186 187 191 190
f 193 196 195 194
f 197 198 199 200
f 193 194 198 197
f 196 200 199 195
f 193 197 200 196
f 194 195 199 198
f 201 204 203 202
f 205 206 207 208
f 201 202 206 205
f 204 208 207 203
f 201 205 208 204
f 202 203 207 206
f 209 212 211 210
f 213 214 215 216
f 209 210 214 213
f 212 216 215 211
f 209 213 216 212
f 210 211 215 214
f 217 220 219 218
f 221 222 223 224
f 217 218 222 221
f 220 224 223 219
f 217 221 224 220
f 218 219 223 222
f 225 228 227 226
f 229 230 231 232
f 225 226 230 229
f 228 232 231 227
f 225 229 232 228
f 226 227 231 230
f 233 234 247 246
f 234 235 248 247
f 235 236 249 248
f 236 237 250 249
f 237 238 251 250
f 238 239 252 251
f 239 240 253 252
f 240 241 254 253
f 241 242 255 254
f 242 243 256 255
f 243 244 257 256
f 244 245 258 257
f 245 233 246 258
f 259 234 233
f 260 246 247
f 259 235 234
f 260 247 248
f 259 236 235
f 260 248 249
f 259 237 236
f 260 249 250
f 259 238 237
f 260 250 251
f 259 239 238
f 260 251 252
f 259 240 239
f 260 252 253
f 259 241 240
f 260 253 254
f 259 242 241
f 260 254 255
f 259 243 242
f 260 255 256
f 259 244 243
f 260 256 257
f 259 245 244
f 260 257 258
f 259 233 245
f 260 258 246
f 261 262 275 274
f 262 263 276 275
f 263 264 277 276
f 264 265 278 277
f 265 266 279 278
f 266 267 280 279
f 267 268 281 280
f 268 269 282 281
f 269 270 283 282
f 270 271 284 283
f 271 272 285 284
f 272 273 286 285
f 273 261 274 286
f 287 262 261
f 288 274 275
f 287 263 262
f 288 275 276
f 287 264 263
f 288 276 277
f 287 265 264
f 288 277 278
f 287 266 265
f 288 278 279
f 287 267 266
f 288 279 280
f 287 268 267
f 288 280 281
f 287 269 268
f 288 281 282
f 287 270 269
f 288 282 283
f 287 271 270
f 288 283 284
f 287 272 271
f 288 284 285
f 287 273 272
f 288 285 286
f 287 261 273
f 288 286 274
f 289 290 303 302
f 290 291 304 303
f 291 292 305 304
f 292 293 306 305
f 293 294 307 306
f 294 295 308 307
f 295 296 309 308
f 296 297 310 309
f 297 298 311 310
f 298 299 312 311
f 299 300 313 312
f 300 301 314 313
f 301 289 302 314
f 315 290 289
f 316 302 303
f 315 291 290
f 316 303 304
f 315 292 291
f 316 304 305
f 315 293 292
f 316 305 306
f 315 294 293
f 316 306 307
f 315 295 294
f 316 307 308
f 315 296 295
f 316 308 309
f 315 297 296
f 316 309 310
f 315 298 297
f 316 310 311
f 315 299 298
f 316 311 312
f 315 300 299
f 316 312 313
f 315 301 300
f 316 313 314
f 315 289 301
f 316 314 302
f 317 318 331 330
f 318 319 332 331
f 319 320 333 332
f 320 321 334 333
f 321 322 335 334
f 322 323 336 335
f 323 324 337 336
f 324 325 338 337
f 325 326 339 338
f 326 327 340 339
f 327 328 341 340
f 328 329 342 341
f 329 317 330 342
f 343 318 317
f 344 330 331
f 343 319 318
f 344 331 332
f 343 320 319
f 344 332 333
f 343 321 320
f 344 333 334
f 343 322 321
f 344 334 335
f 343 323 322
f 344 335 336
f 343 324 323
f 344 336 337
f 343 325 324
f 344 337 338
f 343 326 325
f 344 338 339
f 343 327 326
f 344 339 340
f 343 328 327
f 344 340 341
f 343 329 328
f 344 341 342
f 343 317 329
f 344 342 330
f 345 346 359 358
f 346 347 360 359
f 347 348 361 360
f 348 349 362 361
f 349 350 363 362
f 350 351 364 363
f 351 352 365 364
f 352 353 366 365
f 353 354 367 366
f 354 355 368 367
f 355 356 369 368
f 356 357 370 369
f 357 345 358 370
f 371 346 345
f 372 358 359
f 371 347 346
f 372 359 360
f 371 348 347
f 372 360 361
f 371 349 348
f 372 361 362
f 371 350 349
f 372 362 363
f 371 351 350
f 372 363 364
f 371 352 351
f 372 364 365
f 371 353 352
f 372 365 366
f 371 354 353
f 372 366 367
f 371 355 354
f 372 367 368
f 371 356 355
f 372 368 369
f 371 357 356
f 372 369 370
f 371 345 357
f 372 370 358
f 373 374 387 386
f 374 375 388 387
f 375 376 389 388
f 376 377 390 389
f 377 378 391 390
f 378 379 392 391
f 379 380 393 392
f 380 381 394 393
f 381 382 395 394
f 382 383 396 395
f 383 384 397 396
f 384 385 398 397
f 385 373 386 398
f 399 374 373
f 400 386 387
f 399 375 374
f 400 387 388
f 399 376 375
f 400 388 389
f 399 377 376
f 400 389 390
f 399 378 377
f 400 390 391
f 399 379 378
f 400 391 392
f 399 380 379
f 400 392 393
f 399 381 380
f 400 393 394
f 399 382 381
f 400 394 395
f 399 383 382
f 400 395 396
f 399 384 383
f 400 396 397
f 399 385 384
f 400 397 398
f 399 373 385
f 400 398 386
f 401 402 415 414
f 402 403 416 415
f 403 404 417 416
f 404 405 418 417
f 405 406 419 418
f 406 407 420 419
f 407 408 421 420
f 408 409 422 421
f 409 410 423 422
f 410 411 424 423
f 411 412 425 424
f 412 413 426 425
f 413 401 414 426
f 427 402 401
f 428 414 415
f 427 403 402
f 428 415 416
f 427 404 403
f 428 416 417
f 427 405 404
f 428 417 418
f 427 406 405
f 428 418 419
f 427 407 406
f 428 419 420
f 427 408 407
f 428 420 421
f 427 409 408
f 428 421 422
f 427 410 409
f 428 422 423
f 427 411 410
f 428 423 424
f 427 412 411
f 428 424 425
f 427 413 412
f 428 425 426
f 427 401 413
f 428 426 414
f 429 430 443 442
f 430 431 444 443
f 431 432 445 444
f 432 433 446 445
f 433 434 447 446
f 434 435 448 447
f 435 436 449 448
f 436 437 450 449
f 437 438 451 450
f 438 439 452 451
f 439 440 453 452
f 440 441 454 453
f 441 429 442 454
f 455 430 429
f 456 442 443
f 455 431 430
f 456 443 444
f 455 432 431
f 456 444 445
f 455 433 432
f 456 445 446
f 455 434 433
f 456 446 447
f 455 435 434
f 456 447 448
f 455 436 435
f 456 448 449
f 455 437 436
f 456 449 450
f 455 438 437
f 456 450 451
f 455 439 438
f 456 451 452
f 455 440 439
f 456 452 453
f 455 441 440
f 456 453 454
f 455 429 441
f 456 454 442
f 457 458 471 470
f 458 459 472 471
f 459 460 473 472
f 460 461 474 473
f 461 462 475 474
f 462 463 476 475
f 463 464 477 476
f 464 465 478 477
f 465 466 479 478
f 466 467 480 479
f 467 468 481 480
f 468 469 482 481
f 469 457 470 482
f 483 458 457
f 484 470 471
f 483 459 458
f 484 471 472
f 483 460 459
f 484 472 473
f 483 461 460
f 484 473 474
f 483 462 461
f 484 474 475
f 483 463 462
f 484 475 476
f 483 464 463
f 484 476 477
f 483 465 464
f 484 477 478
f 483 466 465
f 484 478 479
f 483 467 466
f 484 479 480
f 483 468 467
f 484 480 481
f 483 469 468
f 484 481 482
f 483 457 469
f 484 482 470
f 485 486 499 498
f 486 487 500 499
f 487 488 501 500
f 488 489 502 501
f 489 490 503 502
f 490 491 504 503
f 491 492 505 504
f 492 493 506 505
f 493 494 507 506
f 494 495 508 507
f 495 496 509 508
f 496 497 510 509
f 497 485 498 510
f 511 486 485
f 512 498 499
f 511 487 486
f 512 499 500
f 511 488 487
f 512 500 501
f 511 489 488
f 512 501 502
f 511 490 489
f 512 502 503
f 511 491 490
f 512 503 504
f 511 492 491
f 512 504 505
f 511 493 492
f 512 505 506
f 511 494 493
f 512 506 507
f 511 495 494
f 512 507 508
f 511 496 495
f 512 508 509
f 511 497 496
f 512 509 510
f 511 485 497
f 512 510 498
f 513 516 515 514
f 517 518 519 520
f 513 514 518 517
f 516 520 519 515
f 513 517 520 516
f 514 515 519 518
f 521 524 523 522
f 525 526 527 528
f 521 522 526 525
f 524 528 527 523
f 521 525 528 524
f 522 523 527 526
f 529 532 531 530
f 533 534 535 536
f 529 530 534 533
f 532 536 535 531
f 529 533 536 532
f 530 531 535 534
f 537 540 539 538
f 541 542 543 544
f 537 538 542 541
f 540 544 543 539
f 537 541 544 540
f 538 539 543 542
f 545 548 547 546
f 549 550 551 552
f 545 546 550 549
f 548 552 551 547
f 545 549 552 548
f 546 547 551 550
f 553 556 555 554
f 557 558 559 560
f 553 554 558 557
f 556 560 559 555
f 553 557 560 556
f 554 555 559 558
f 561 564 563 562
f 565 566 567 568
f 561 562 566 565
f 564 568 567 563
f 561 565 568 564
f 562 563 567 566
f 569 571 570
f 569 572 571
f 569 573 572
f 569 574 573
f 569 575 574
f 569 576 575
f 569 577 576
f 569 570 577
f 570 571 579 578
f 571 572 580 579
f 572 573 581 580
f 573 574 582 581
f 574 575 583 582
f 575 576 584 583
f 576 577 585 584
f 577 570 578 585
f 578 579 587 586
f 579 580 588 587
f 580 581 589 588
f 581 582 590 589
f 582 583 591 590
f 583 584 592 591
f 584 585 593 592
f 585 578 586 593
f 594 586 587
f 594 587 588
f 594 588 589
f 594 589 590
f 594 590 591
f 594 591 592
f 594 592 593
f 594 593 586
f 595 598 597 596
f 599 600 601 602
f 595 596 600 599
f 598 602 601 597
f 595 599 602 598
f 596 597 601 600
f 603 606 605 604
f 607 608 609 610
f 603 604 608 607
f 606 610 609 605
f 603 607 610 606
f 604 605 609 608
f 611 617 618 612
f 612 618 619 613
f 613 619 620 614
f 614 620 621 615
f 615 621 622 616
f 616 622 617 611
f 617 623 624 618
f 618 624 625 619
f 619 625 626 620
f 620 626 627 621
f 621 627 628 622
f 622 628 623 617
f 623 629 630 624
f 624 630 631 625
f 625 631 632 626
f 626 632 633 627
f 627 633 634 628
f 628 634 629 623
f 629 635 636 630
f 630 636 637 631
f 631 637 638 632
f 632 638 639 633
f 633 639 640 634
f 634 640 635 629
f 635 641 642 636
f 636 642 643 637
f 637 643 644 638
f 638 644 645 639
f 639 645 646 640
f 640 646 641 635
f 641 647 648 642
f 642 648 649 643
f 643 649 650 644
f 644 650 651 645
f 645 651 652 646
f 646 652 647 641
f 647 653 654 648
f 648 654 655 649
f 649 655 656 650
f 650 656 657 651
f 651 657 658 652
f 652 658 653 647
f 653 659 660 654
f 654 660 661 655
f 655 661 662 656
f 656 662 663 657
f 657 663 664 658
f 658 664 659 653
f 659 665 666 660
f 660 666 667 661
f 661 667 668 662
f 662 668 669 663
f 663 669 670 664
f 664 670 665 659
f 665 671 672 666
f 666 672 673 667
f 667 673 674 668
f 668 674 675 669
f 669 675 676 670
f 670 676 671 665
f 671 677 678 672
f 672 678 679 673
f 673 679 680 674
f 674 680 681 675
f 675 681 682 676
f 676 682 677 671
f 677 611 612 678
f 678 612 613 679
f 679 613 614 680
f 680 614 615 681
f 681 615 616 682
f 682 616 611 677
f 683 686 685 684
f 687 688 689 690
f 683 684 688 687
f 686 690 689 685
f 683 687 690 686
f 684 685 689 688
f 691 694 693 692
f 695 696 697 698
f 691 692 696 695
f 694 698 697 693
f 691 695 698 694
f 692 693 697 696
f 700 706 705 699
f 701 707 706 700
f 702 708 707 701
f 703 709 708 702
f 704 710 709 703
f 699 705 710 704
f 706 712 711 705
f 707 713 712 706
f 708 714 713 707
f 709 715 714 708
f 710 716 715 709
f 705 711 716 710
f 712 718 717 711
f 713 719 718 712
f 714 720 719 713
f 715 721 720 714
f 716 722 721 715
f 711 717 722 716
f 718 724 723 717
f 719 725 724 718
f 720 726 725 719
f 721 727 726 720
f 722 728 727 721
f 717 723 728 722
f 724 730 729 723
f 725 731 730 724
f 726 732 731 725
f 727 733 732 726
f 728 734 733 727
f 723 729 734 728
f 730 736 735 729
f 731 737 736 730
f 732 738 737 731
f 733 739 738 732
f 734 740 739 733
f 729 735 740 734
f 736 742 741 735
f 737 743 742 736
f 738 744 743 737
f 739 745 744 738
f 740 746 745 739
f 735 741 746 740
f 742 748 747 741
f 743 749 748 742
f 744 750 749 743
f 745 751 750 744
f 746 752 751 745
f 741 747 752 746
f 748 754 753 747
f 749 755 754 748
f 750 756 755 749
f 751 757 756 750
f 752 758 757 751
f 747 753 758 752
f 754 760 759 753
f 755 761 760 754
f 756 762 761 755
f 757 763 762 756
f 758 764 763 757
f 753 759 764 758
f 760 766 765 759
f 761 767 766 760
f 762 768 767 761
f 763 769 768 762
f 764 770 769 763
f 759 765 770 764
f 766 700 699 765
f 767 701 700 766
f 768 702 701 767
f 769 703 702 768
f 770 704 703 769
f 765 699 704 770
f 771 773 772
f 771 774 773
f 771 775 774
f 771 776 775
f 771 777 776
f 771 778 777
f 771 779 778
f 771 772 779
f 772 773 781 780
f 773 774 782 781
f 774 775 783 782
f 775 776 784 783
f 776 777 785 784
f 777 778 786 785
f 778 779 787 786
f 779 772 780 787
f 780 781 789 788
f 781 782 790 789
f 782 783 791 790
f 783 784 792 791
f 784 785 793 792
f 785 786 794 793
f 786 787 795 794
f 787 780 788 795
f 796 788 789
f 796 789 790
f 796 790 791
f 796 791 792
f 796 792 793
f 796 793 794
f 796 794 795
f 796 795 788
f 797 799 798
f 797 800 799
f 797 801 800
f 797 802 801
f 797 803 802
f 797 804 803
f 797 805 804
f 797 798 805
f 798 799 807 806
f 799 800 808 807
f 800 801 809 808
f 801 802 810 809
f 802 803 811 810
f 803 804 812 811
f 804 805 813 812
f 805 798 806 813
f 806 807 815 814
f 807 808 816 815
f 808 809 817 816
f 809 810 818 817
f 810 811 819 818
f 811 812 820 819
f 812 813 821 820
f 813 806 814 821
f 822 814 815
f 822 815 816
f 822 816 817
f 822 817 818
f 822 818 819
f 822 819 820
f 822 820 821
f 822 821 814
f 823 825 824
f 823 826 825
f 823 827 826
f 823 828 827
f 823 829 828
f 823 830 829
f 823 831 830
f 823 824 831
f 824 825 833 832
f 825 826 834 833
f 826 827 835 834
f 827 828 836 835
f 828 829 837 836
f 829 830 838 837
f 830 831 839 838
f 831 824 832 839
f 832 833 841 840
f 833 834 842 841
f 834 835 843 842
f 835 836 844 843
f 836 837 845 844
f 837 838 846 845
f 838 839 847 846
f 839 832 840 847
f 848 840 841
f 848 841 842
f 848 842 843
f 848 843 844
f 848 844 845
f 848 845 846
f 848 846 847
f 848 847 840
f 849 851 850
f 849 852 851
f 849 853 852
f 849 854 853
f 849 855 854
f 849 856 855
f 849 857 856
f 849 850 857
f 850 851 859 858
f 851 852 860 859
f 852 853 861 860
f 853 854 862 861
f 854 855 863 862
f 855 856 864 863
f 856 857 865 864
f 857 850 858 865
f 858 859 867 866
f 859 860 868 867
f 860 861 869 868
f 861 862 870 869
f 862 863 871 870
f 863 864 872 871
f 864 865 873 872
f 865 858 866 873
f 874 866 867
f 874 867 868
f 874 868 869
f 874 869 870
f 874 870 871
f 874 871 872
f 874 872 873
f 874 873 866
f 875 877 876
f 875 878 877
f 875 879 878
f 875 880 879
f 875 881 880
f 875 882 881
f 875 883 882
f 875 876 883
f 876 877 885 884
f 877 878 886 885
f 878 879 887 886
f 879 880 888 887
f 880 881 889 888
f 881 882 890 889
f 882 883 891 890
f 883 876 884 891
f 884 885 893 892
f 885 886 894 893
f 886 887 895 894
f 887 888 896 895
f 888 889 897 896
f 889 890 898 897
f 890 891 899 898
f 891 884 892 899
f 900 892 893
f 900 893 894
f 900 894 895
f 900 895 896
f 900 896 897
f 900 897 898
f 900 898 899
f 900 899 892
f 901 903 902
f 901 904 903
f 901 905 904
f 901 906 905
f 901 907 906
f 901 908 907
f 901 909 908
f 901 902 909
f 902 903 911 910
f 903 904 912 911
f 904 905 913 912
f 905 906 914 913
f 906 907 915 914
f 907 908 916 915
f 908 909 917 916
f 909 902 910 917
f 910 911 919 918
f 911 912 920 919
f 912 913 921 920
f 913 914 922 921
f 914 915 923 922
f 915 916 924 923
f 916 917 925 924
f 917 910 918 925
f 926 918 919
f 926 919 920
f 926 920 921
f 926 921 922
f 926 922 923
f 926 923 924
f 926 924 925
f 926 925 918
f 927 929 928
f 927 930 929
f 927 931 930
f 927 932 931
f 927 933 932
f 927 934 933
f 927 935 934
f 927 928 935
f 928 929 937 936
f 929 930 938 937
f 930 931 939 938
f 931 932 940 939
f 932 933 941 940
f 933 934 942 941
f 934 935 943 942
f 935 928 936 943
f 936 937 945 944
f 937 938 946 945
f 938 939 947 946
f 939 940 948 947
f 940 941 949 948
f 941 942 950 949
f 942 943 951 950
f 943 936 944 951
f 952 944 945
f 952 945 946
f 952 946 947
f 952 947 948
f 952 948 949
f 952 949 950
f 952 950 951
f 952 951 944
f 953 955 954
f 953 956 955
f 953 957 956
f 953 958 957
f 953 959 958
f 953 960 959
f 953 961 960
f 953 954 961
f 954 955 963 962
f 955 956 964 963
f 956 957 965 964
f 957 958 966 965
f 958 959 967 966
f 959 960 968 967
f 960 961 969 968
f 961 954 962 969
f 962 963 971 970
f 963 964 972 971
f 964 965 973 972
f 965 966 974 973
f 966 967 975 974
f 967 968 976 975
f 968 969 977 976
f 969 962 970 977
f 978 970 971
f 978 971 972
f 978 972 973
f 978 973 974
f 978 974 975
f 978 975 976
f 978 976 977
f 978 977 970
f 979 981 980
f 979 982 981
f 979 983 982
f 979 984 983
f 979 985 984
f 979 986 985
f 979 987 986
f 979 980 987
f 980 981 989 988
f 981 982 990 989
f 982 983 991 990
f 983 984 992 991
f 984 985 993 992
f 985 986 994 993
f 986 987 995 994
f 987 980 988 995
f 988 989 997 996
f 989 990 998 997
f 990 991 999 998
f 991 992 1000 999
f 992 993 1001 1000
f 993 994 1002 1001
f 994 995 1003 1002
f 995 988 996 1003
f 1004 996 997
f 1004 997 998
f 1004 998 999
f 1004 999 1000
f 1004 1000 1001
f 1004 1001 1002
f 1004 1002 1003
f 1004 1003 996
f 1005 1007 1006
f 1005 1008 1007
f 1005 1009 1008
f 1005 1010 1009
f 1005 1011 1010
f 1005 1012 1011
f 1005 1013 1012
f 1005 1006 1013
f 1006 1007 1015 1014
f 1007 1008 1016 1015
f 1008 1009 1017 1016
f 1009 1010 1018 1017
f 1010 1011 1019 1018
f 1011 1012 1020 1019
f 1012 1013 1021 1020
f 1013 1006 1014 1021
f 1014 1015 1023 1022
f 1015 1016 1024 1023
f 1016 1017 1025 1024
f 1017 1018 1026 1025
f 1018 1019 1027 1026
f 1019 1020 1028 1027
f 1020 1021 1029 1028
f 1021 1014 1022 1029
f 1030 1022 1023
f 1030 1023 1024
f 1030 1024 1025
f 1030 1025 1026
f 1030 1026 1027
f 1030 1027 1028
f 1030 1028 1029
f 1030 1029 1022
f 1031 1033 1032
f 1031 1034 1033
f 1031 1035 1034
f 1031 1036 1035
f 1031 1037 1036
f 1031 1038 1037
f 1031 1039 1038
f 1031 1032 1039
f 1032 1033 1041 1040
f 1033 1034 1042 1041
f 1034 1035 1043 1042
f 1035 1036 1044 1043
f 1036 1037 1045 1044
f 1037 1038 1046 1045
f 1038 1039 1047 1046
f 1039 1032 1040 1047
f 1040 1041 1049 1048
f 1041 1042 1050 1049
f 1042 1043 1051 1050
f 1043 1044 1052 1051
f 1044 1045 1053 1052
f 1045 1046 1054 1053
f 1046 1047 1055 1054
f 1047 1040 1048 1055
f 1056 1048 1049
f 1056 1049 1050
f 1056 1050 1051
f 1056 1051 1052
f 1056 1052 1053
f 1056 1053 1054
f 1056 1054 1055
f 1056 1055 1048
f 1057 1059 1058
f 1057 1060 1059
f 1057 1061 1060
f 1057 1062 1061
f 1057 1063 1062
f 1057 1064 1063
f 1057 1065 1064
f 1057 1058 1065
f 1058 1059 1067 1066
f 1059 1060 1068 1067
f 1060 1061 1069 1068
f 1061 1062 1070 1069
f 1062 1063 1071 1070
f 1063 1064 1072 1071
f 1064 1065 1073 1072
f 1065 1058 1066 1073
f 1066 1067 1075 1074
f 1067 1068 1076 1075
f 1068 1069 1077 1076
f 1069 1070 1078 1077
f 1070 1071 1079 1078
f 1071 1072 1080 1079
f 1072 1073 1081 1080
f 1073 1066 1074 1081
f 1082 1074 1075
f 1082 1075 1076
f 1082 1076 1077
f 1082 1077 1078
f 1082 1078 1079
f 1082 1079 1080
f 1082 1080 1081
f 1082 1081 1074
f 1083 1085 1084
f 1083 1086 1085
f 1083 1087 1086
f 1083 1088 1087
f 1083 1089 1088
f 1083 1090 1089
f 1083 1091 1090
f 1083 1084 1091
f 1084 1085 1093 1092
f 1085 1086 1094 1093
f 1086 1087 1095 1094
f 1087 1088 1096 1095
f 1088 1089 1097 1096
f 1089 1090 1098 1097
f 1090 1091 1099 1098
f 1091 1084 1092 1099
f 1092 1093 1101 1100
f 1093 1094 1102 1101
f 1094 1095 1103 1102
f 1095 1096 1104 1103
f 1096 1097 1105 1104
f 1097 1098 1106 1105
f 1098 1099 1107 1106
f 1099 1092 1100 1107
f 1108 1100 1101
f 1108 1101 1102
f 1108 1102 1103
f 1108 1103 1104
f 1108 1104 1105
f 1108 1105 1106
f 1108 1106 1107
f 1108 1107 1100
f 1109 1111 1110
f 1109 1112 1111
f 1109 1113 1112
f 1109 1114 1113
f 1109 1115 1114
f 1109 1116 1115
f 1109 1117 1116
f 1109 1110 1117
f 1110 1111 1119 1118
f 1111 1112 1120 1119
f 1112 1113 1121 1120
f 1113 1114 1122 1121
f 1114 1115 1123 1122
f 1115 1116 1124 1123
f 1116 1117 1125 1124
f 1117 1110 1118 1125
f 1118 1119 1127 1126
f 1119 1120 1128 1127
f 1120 1121 1129 1128
f 1121 1122 1130 1129
f 1122 1123 1131 1130
f 1123 1124 1132 1131
f 1124 1125 1133 1132
f 1125 1118 1126 1133
f 1134 1126 1127
f 1134 1127 1128
f 1134 1128 1129
f 1134 1129 1130
f 1134 1130 1131
f 1134 1131 1132
f 1134 1132 1133
f 1134 1133 1126
f 1135 1137 1136
f 1135 1138 1137
f 1135 1139 1138
f 1135 1140 1139
f 1135 1141 1140
f 1135 1142 1141
f 1135 1143 1142
f 1135 1136 1143
f 1136 1137 1145 1144
f 1137 1138 1146 1145
f 1138 1139 1147 1146
f 1139 1140 1148 1147
f 1140 1141 1149 1148
f 1141 1142 1150 1149
f 1142 1143 1151 1150
f 1143 1136 1144 1151
f 1144 1145 1153 1152
f 1145 1146 1154 1153
f 1146 1147 1155 1154
f 1147 1148 1156 1155
f 1148 1149 1157 1156
f 1149 1150 1158 1157
f 1150 1151 1159 1158
f 1151 1144 1152 1159
f 1160 1152 1153
f 1160 1153 1154
f 1160 1154 1155
f 1160 1155 1156
f 1160 1156 1157
f 1160 1157 1158
f 1160 1158 1159
f 1160 1159 1152
f 1161 1163 1162
f 1161 1164 1163
f 1161 1165 1164
f 1161 1166 1165
f 1161 1167 1166
f 1161 1168 1167
f 1161 1169 1168
f 1161 1162 1169
f 1162 1163 1171 1170
f 1163 1164 1172 1171
f 1164 1165 1173 1172
f 1165 1166 1174 1173
f 1166 1167 1175 1174
f 1167 1168 1176 1175
f 1168 1169 1177 1176
f 1169 1162 1170 1177
f 1170 1171 1179 1178
f 1171 1172 1180 1179
f 1172 1173 1181 1180
f 1173 1174 1182 1181
f 1174 1175 1183 1182
f 1175 1176 1184 1183
f 1176 1177 1185 1184
f 1177 1170 1178 1185
f 1186 1178 1179
f 1186 1179 1180
f 1186 1180 1181
f 1186 1181 1182
f 1186 1182 1183
f 1186 1183 1184
f 1186 1184 1185
f 1186 1185 1178
f 1187 1189 1188
f 1187 1190 1189
f 1187 1191 1190
f 1187 1192 1191
f 1187 1193 1192
f 1187 1194 1193
f 1187 1195 1194
f 1187 1188 1195
f 1188 1189 1197 1196
f 1189 1190 1198 1197
f 1190 1191 1199 1198
f 1191 1192 1200 1199
f 1192 1193 1201 1200
f 1193 1194 1202 1201
f 1194 1195 1203 1202
f 1195 1188 1196 1203
f 1196 1197 1205 1204
f 1197 1198 1206 1205
f 1198 1199 1207 1206
f 1199 1200 1208 1207
f 1200 1201 1209 1208
f 1201 1202 1210 1209
f 1202 1203 1211 1210
f 1203 1196 1204 1211
f 1212 1204 1205
f 1212 1205 1206
f 1212 1206 1207
f 1212 1207 1208
f 1212 1208 1209
f 1212 1209 1210
f 1212 1210 1211
f 1212 1211 1204
f 1213 1215 1214
f 1213 1216 1215
f 1213 1217 1216
f 1213 1218 1217
f 1213 1219 1218
f 1213 1220 1219
f 1213 1221 1220
f 1213 1214 1221
f 1214 1215 1223 1222
f 1215 1216 1224 1223
f 1216 1217 1225 1224
f 1217 1218 1226 1225
f 1218 1219 1227 1226
f 1219 1220 1228 1227
f 1220 1221 1229 1228
f 1221 1214 1222 1229
f 1222 1223 1231 1230
f 1223 1224 1232 1231
f 1224 1225 1233 1232
f 1225 1226 1234 1233
f 1226 1227 1235 1234
f 1227 1228 1236 1235
f 1228 1229 1237 1236
f 1229 1222 1230 1237
f 1238 1230 1231
f 1238 1231 1232
f 1238 1232 1233
f 1238 1233 1234
f 1238 1234 1235
f 1238 1235 1236
f 1238 1236 1237
f 1238 1237 1230
f 1239 1241 1240
f 1239 1242 1241
f 1239 1243 1242
f 1239 1244 1243
f 1239 1245 1244
f 1239 1246 1245
f 1239 1247 1246
f 1239 1240 1247
f 1240 1241 1249 1248
f 1241 1242 1250 1249
f 1242 1243 1251 1250
f 1243 1244 1252 1251
f 1244 1245 1253 1252
f 1245 1246 1254 1253
f 1246 1247 1255 1254
f 1247 1240 1248 1255
f 1248 1249 1257 1256
f 1249 1250 1258 1257
f 1250 1251 1259 1258
f 1251 1252 1260 1259
f 1252 1253 1261 1260
f 1253 1254 1262 1261
f 1254 1255 1263 1262
f 1255 1248 1256 1263
f 1264 1256 1257
f 1264 1257 1258
f 1264 1258 1259
f 1264 1259 1260
f 1264 1260 1261
f 1264 1261 1262
f 1264 1262 1263
f 1264 1263 1256
f 1265 1267 1266
f 1265 1268 1267
f 1265 1269 1268
f 1265 1270 1269
f 1265 1271 1270
f 1265 1272 1271
f 1265 1273 1272
f 1265 1266 1273
f 1266 1267 1275 1274
f 1267 1268 1276 1275
f 1268 1269 1277 1276
f 1269 1270 1278 1277
f 1270 1271 1279 1278
f 1271 1272 1280 1279
f 1272 1273 1281 1280
f 1273 1266 1274 1281
f 1274 1275 1283 1282
f 1275 1276 1284 1283
f 1276 1277 1285 1284
f 1277 1278 1286 1285
f 1278 1279 1287 1286
f 1279 1280 1288 1287
f 1280 1281 1289 1288
f 1281 1274 1282 1289
f 1290 1282 1283
f 1290 1283 1284
f 1290 1284 1285
f 1290 1285 1286
f 1290 1286 1287
f 1290 1287 1288
f 1290 1288 1289
f 1290 1289 1282
f 1291 1293 1292
f 1291 1294 1293
f 1291 1295 1294
f 1291 1296 1295
f 1291 1297 1296
f 1291 1298 1297
f 1291 1299 1298
f 1291 1292 1299
f 1292 1293 1301 1300
f 1293 1294 1302 1301
f 1294 1295 1303 1302
f 1295 1296 1304 1303
f 1296 1297 1305 1304
f 1297 1298 1306 1305
f 1298 1299 1307 1306
f 1299 1292 1300 1307
f 1300 1301 1309 1308
f 1301 1302 1310 1309
f 1302 1303 1311 1310
f 1303 1304 1312 1311
f 1304 1305 1313 1312
f 1305 1306 1314 1313
f 1306 1307 1315 1314
f 1307 1300 1308 1315
f 1316 1308 1309
f 1316 1309 1310
f 1316 1310 1311
f 1316 1311 1312
f 1316 1312 1313
f 1316 1313 1314
f 1316 1314 1315
f 1316 1315 1308
f 1317 1319 1318
f 1317 1320 1319
f 1317 1321 1320
f 1317 1322 1321
f 1317 1323 1322
f 1317 1324 1323
f 1317 1325 1324
f 1317 1318 1325
f 1318 1319 1327 1326
f 1319 1320 1328 1327
f 1320 1321 1329 1328
f 1321 1322 1330 1329
f 1322 1323 1331 1330
f 1323 1324 1332 1331
f 1324 1325 1333 1332
f 1325 1318 1326 1333
f 1326 1327 1335 1334
f 1327 1328 1336 1335
f 1328 1329 1337 1336
f 1329 1330 1338 1337
f 1330 1331 1339 1338
f 1331 1332 1340 1339
f 1332 1333 1341 1340
f 1333 1326 1334 1341
f 1342 1334 1335
f 1342 1335 1336
f 1342 1336 1337
f 1342 1337 1338
f 1342 1338 1339
f 1342 1339 1340
f 1342 1340 1341
f 1342 1341 1334
f 1343 1345 1344
f 1343 1346 1345
f 1343 1347 1346
f 1343 1348 1347
f 1343 1349 1348
f 1343 1350 1349
f 1343 1351 1350
f 1343 1344 1351
f 1344 1345 1353 1352
f 1345 1346 1354 1353
f 1346 1347 1355 1354
f 1347 1348 1356 1355
f 1348 1349 1357 1356
f 1349 1350 1358 1357
f 1350 1351 1359 1358
f 1351 1344 1352 1359
f 1352 1353 1361 1360
f 1353 1354 1362 1361
f 1354 1355 1363 1362
f 1355 1356 1364 1363
f 1356 1357 1365 1364
f 1357 1358 1366 1365
f 1358 1359 1367 1366
f 1359 1352 1360 1367
f 1368 1360 1361
f 1368 1361 1362
f 1368 1362 1363
f 1368 1363 1364
f 1368 1364 1365
f 1368 1365 1366
f 1368 1366 1367
f 1368 1367 1360
f 1369 1371 1370
f 1369 1372 1371
f 1369 1373 1372
f 1369 1374 1373
f 1369 1375 1374
f 1369 1376 1375
f 1369 1377 1376
f 1369 1370 1377
f 1370 1371 1379 1378
f 1371 1372 1380 1379
f 1372 1373 1381 1380
f 1373 1374 1382 1381
f 1374 1375 1383 1382
f 1375 1376 1384 1383
f 1376 1377 1385 1384
f 1377 1370 1378 1385
f 1378 1379 1387 1386
f 1379 1380 1388 1387
f 1380 1381 1389 1388
f 1381 1382 1390 1389
f 1382 1383 1391 1390
f 1383 1384 1392 1391
f 1384 1385 1393 1392
f 1385 1378 1386 1393
f 1394 1386 1387
f 1394 1387 1388
f 1394 1388 1389
f 1394 1389 1390
f 1394 1390 1391
f 1394 1391 1392
f 1394 1392 1393
f 1394 1393 1386
f 1395 1397 1396
f 1395 1398 1397
f 1395 1399 1398
f 1395 1400 1399
f 1395 1401 1400
f 1395 1402 1401
f 1395 1403 1402
f 1395 1396 1403
f 1396 1397 1405 1404
f 1397 1398 1406 1405
f 1398 1399 1407 1406
f 1399 1400 1408 1407
f 1400 1401 1409 1408
f 1401 1402 1410 1409
f 1402 1403 1411 1410
f 1403 1396 1404 1411
f 1404 1405 1413 1412
f 1405 1406 1414 1413
f 1406 1407 1415 1414
f 1407 1408 1416 1415
f 1408 1409 1417 1416
f 1409 1410 1418 1417
f 1410 1411 1419 1418
f 1411 1404 1412 1419
f 1420 1412 1413
f 1420 1413 1414
f 1420 1414 1415
f 1420 1415 1416
f 1420 1416 1417
f 1420 1417 1418
f 1420 1418 1419
f 1420 1419 1412
f 1421 1423 1422
f 1421 1424 1423
f 1421 1425 1424
f 1421 1426 1425
f 1421 1427 1426
f 1421 1428 1427
f 1421 1429 1428
f 1421 1422 1429
f 1422 1423 1431 1430
f 1423 1424 1432 1431
f 1424 1425 1433 1432
f 1425 1426 1434 1433
f 1426 1427 1435 1434
f 1427 1428 1436 1435
f 1428 1429 1437 1436
f 1429 1422 1430 1437
f 1430 1431 1439 1438
f 1431 1432 1440 1439
f 1432 1433 1441 1440
f 1433 1434 1442 1441
f 1434 1435 1443 1442
f 1435 1436 1444 1443
f 1436 1437 1445 1444
f 1437 1430 1438 1445
f 1446 1438 1439
f 1446 1439 1440
f 1446 1440 1441
f 1446 1441 1442
f 1446 1442 1443
f 1446 1443 1444
f 1446 1444 1445
f 1446 1445 1438
